<?xml version="1.0" encoding="UTF-8" standalone="no"?>
<!-- Created with Inkscape (http://www.inkscape.org/) -->

<svg
   width="68.294052mm"
   height="35.091915mm"
   viewBox="0 0 68.294052 35.091915"
   version="1.1"
   id="svg1"
   sodipodi:docname="a.svg"
   inkscape:version="1.4 (86a8ad7, 2024-10-11)"
   xmlns:inkscape="http://www.inkscape.org/namespaces/inkscape"
   xmlns:sodipodi="http://sodipodi.sourceforge.net/DTD/sodipodi-0.dtd"
   xmlns="http://www.w3.org/2000/svg"
   xmlns:svg="http://www.w3.org/2000/svg">
  <sodipodi:namedview
     id="namedview1"
     pagecolor="#505050"
     bordercolor="#eeeeee"
     borderopacity="1"
     inkscape:showpageshadow="0"
     inkscape:pageopacity="0"
     inkscape:pagecheckerboard="0"
     inkscape:deskcolor="#505050"
     inkscape:document-units="mm"
     inkscape:zoom="0.98016825"
     inkscape:cx="469.8173"
     inkscape:cy="434.61926"
     inkscape:window-width="1920"
     inkscape:window-height="991"
     inkscape:window-x="-9"
     inkscape:window-y="-9"
     inkscape:window-maximized="1"
     inkscape:current-layer="layer1">
    <inkscape:page
       x="0"
       y="0"
       width="68.294052"
       height="35.091915"
       id="page2"
       margin="0"
       bleed="0" />
  </sodipodi:namedview>
  <defs
     id="defs1" />
  <g
     inkscape:label="Camada 1"
     inkscape:groupmode="layer"
     id="layer1"
     transform="translate(-75.447078,-48.858516)">
    <path
       d="m 109.59434,48.858516 a 34.146988,34.146988 0 0 0 -34.147266,34.146753 34.146988,34.146988 0 0 0 0.07441,0.945162 h 68.193256 a 34.146988,34.146988 0 0 0 0.0264,-0.945162 34.146988,34.146988 0 0 0 -34.14676,-34.146753 z m -0.94516,1.957504 v 25.011393 l -6.4673,-24.137028 a 32.257431,32.257431 0 0 1 6.4673,-0.874365 z m 1.88981,0 a 32.257431,32.257431 0 0 1 6.46782,0.874365 l -6.46782,24.137545 z m 8.31009,1.300695 a 32.257431,32.257431 0 0 1 6.00738,2.563152 l -12.49174,21.636922 z m -18.50998,5.17e-4 6.48435,24.200074 -12.49174,-21.636923 a 32.257431,32.257431 0 0 1 6.00739,-2.563151 z m 26.17669,3.468522 a 32.257431,32.257431 0 0 1 5.16144,4.000273 l -17.67695,17.676957 z m -33.84341,5.17e-4 12.515,21.676196 -17.676443,-17.67644 A 32.257431,32.257431 0 0 1 92.67238,55.586271 Z M 86.174585,60.92238 103.85103,78.59882 82.174829,66.084338 a 32.257431,32.257431 0 0 1 3.999756,-5.161958 z m 46.839005,0 a 32.257431,32.257431 0 0 1 3.99975,5.161442 L 115.33715,78.59882 Z m 4.90616,6.820255 a 32.257431,32.257431 0 0 1 2.56315,6.007902 l -24.20111,6.484359 z m -56.650809,5.17e-4 21.636919,12.491744 -24.20007,-6.484359 a 32.257431,32.257431 0 0 1 2.563151,-6.007385 z m 59.640809,7.84965 a 32.257431,32.257431 0 0 1 0.87436,6.467822 h -25.01243 z m -62.630807,5.17e-4 24.137547,6.467305 H 77.404578 a 32.257431,32.257431 0 0 1 0.874365,-6.467305 z"
       style="opacity:1;fill:#f6f5f4;stroke-width:10;paint-order:stroke fill markers"
       id="path38"
       inkscape:export-filename="big.png"
       inkscape:export-xdpi="96"
       inkscape:export-ydpi="96" />
  </g>
</svg>
