<?xml version="1.0" encoding="UTF-8" standalone="no"?>
<!-- Created with Inkscape (http://www.inkscape.org/) -->

<svg
   width="142.875mm"
   height="142.875mm"
   viewBox="0 0 142.875 142.875"
   version="1.1"
   id="svg1"
   xml:space="preserve"
   xmlns="http://www.w3.org/2000/svg"
   xmlns:svg="http://www.w3.org/2000/svg"><defs
     id="defs1" /><g
     id="layer1"
     transform="translate(-1595.4375,1521.8834)"><path
       id="rect4"
       style="fill:#ffffff;stroke-width:1;stroke-linecap:square;paint-order:stroke fill markers"
       d="m 1595.4375,-1521.8833 v 142.875 h 142.875 v -142.875 z m 71.3946,4.7687 a 9.6099981,9.6099981 0 0 1 8.5649,5.2369 l 16.2434,31.783 35.2547,5.5733 a 9.6100502,9.6100502 0 0 1 5.303,16.2791 l -25.2077,25.2693 5.594,35.2521 a 9.6102268,9.6102268 0 0 1 -13.8442,10.0738 l -31.8223,-16.1649 -31.7981,16.2135 a 9.6100768,9.6100768 0 0 1 -13.8586,-10.0531 l 5.5403,-35.2599 -25.246,-25.2315 a 9.6100914,9.6100914 0 0 1 5.2782,-16.2869 l 35.2469,-5.6276 16.1949,-31.8073 a 9.6099981,9.6099981 0 0 1 8.5566,-5.2498 z" /></g></svg>
